<svg width="39" height="20" viewBox="0 0 39 20" fill="none" xmlns="http://www.w3.org/2000/svg">
<path fill-rule="evenodd" clip-rule="evenodd" d="M0.999456 6.49409C-0.105113 4.58092 0.55039 2.13457 2.46356 1.03C4.37673 -0.0745721 6.82309 0.580928 7.92766 2.4941L14.2811 13.4985C15.3856 15.4117 14.7301 17.8581 12.817 18.9626C10.9038 20.0672 8.45744 19.4117 7.35287 17.4985L0.999456 6.49409ZM15.7299 6.49754C14.6254 4.58437 15.2809 2.13801 17.194 1.03344C19.1072 -0.0711312 21.5536 0.584369 22.6581 2.49754L29.0115 13.502C30.1161 15.4151 29.4606 17.8615 27.5474 18.9661C25.6343 20.0706 23.1879 19.4151 22.0833 17.502L15.7299 6.49754ZM30.5318 0.499999H37.2333C38.0106 0.499999 38.4907 1.34797 38.0908 2.01449L34.7144 7.64169C33.9376 8.93636 32.0613 8.93637 31.2845 7.64169L28.8169 3.52899C28.017 2.19594 28.9773 0.499999 30.5318 0.499999Z" fill="black"/>
</svg>
